<svg width="122.88" height="122.88" xmlns="http://www.w3.org/2000/svg" data-name="Layer 1">

 <title>cross</title>
 <g>
  <title>Layer 1</title>
  <path id="svg_1" fill-rule="evenodd" fill="#ffffff" d="m5.75,6l0,0a20.53,20.53 0 0 1 29,0l26.5,26.49l26.43,-26.49a20.54,20.54 0 0 1 29,0l0,0a20.53,20.53 0 0 1 0,29l-26.52,26.44l26.49,26.49a20.54,20.54 0 0 1 0,29l0,0a20.54,20.54 0 0 1 -29,0l-26.46,-26.52l-26.44,26.49a20.54,20.54 0 0 1 -29,0l0,0a20.54,20.54 0 0 1 0,-29l26.47,-26.46l-26.47,-26.5a20.53,20.53 0 0 1 0,-28.94z" class="cls-1"/>
 </g>
</svg>